<svg width="16" height="16" viewBox="0 0 16 16" fill="none" xmlns="http://www.w3.org/2000/svg">
  <!-- Background -->
  <rect width="16" height="16" rx="3" fill="#4b5563"/>
  
  <!-- Letter C -->
  <path d="M3 8C3 6.3 4.3 5 6 5C6.7 5 7.3 5.3 7.7 5.7L7 6.4C6.7 6.1 6.4 6 6 6C4.9 6 4 6.9 4 8C4 9.1 4.9 10 6 10C6.4 10 6.7 9.9 7 9.6L7.7 10.3C7.3 10.7 6.7 11 6 11C4.3 11 3 9.7 3 8Z" fill="white"/>
  
  <!-- Letter K -->
  <path d="M8.5 5H9.5V7.5L11.5 5.5H12.8L10.6 7.8L13 11H11.7L10 8.8L9.5 9.3V11H8.5V5Z" fill="white"/>
</svg>
